name Walk5.mot
datacolumns 19
datarows 10
range 2.21000000 2.21900000
endheader

                time	   L_ground_force_vx	   L_ground_force_vy	   L_ground_force_vz	   L_ground_force_px	   L_ground_force_py	   L_ground_force_pz	   R_ground_force_vx	   R_ground_force_vy	   R_ground_force_vz	   R_ground_force_px	   R_ground_force_py	   R_ground_force_pz	   L_ground_torque_x	   L_ground_torque_y	   L_ground_torque_z	   R_ground_torque_x	   R_ground_torque_y	   R_ground_torque_z	
          2.21000000	          0.00000000	          0.00000000	          0.00000000	          0.00000000	          0.00000000	          0.00000000	          0.00000000	          0.00000000	          0.00000000	          0.00000000	          0.00000000	          0.00000000	          0.00000000	          0.00000000	          0.00000000	          0.00000000	          0.00000000	          0.00000000	
          2.21100000	          0.00000000	          0.00000000	          0.00000000	          0.00000000	          0.00000000	          0.00000000	          0.00000000	          0.00000000	          0.00000000	          0.00000000	          0.00000000	          0.00000000	          0.00000000	          0.00000000	          0.00000000	          0.00000000	          0.00000000	          0.00000000	
          2.21200000	          0.00000000	          0.00000000	          0.00000000	          0.00000000	          0.00000000	          0.00000000	          0.00000000	          0.00000000	          0.00000000	          0.00000000	          0.00000000	          0.00000000	          0.00000000	          0.00000000	          0.00000000	          0.00000000	          0.00000000	          0.00000000	
          2.21300000	          0.00000000	          0.00000000	          0.00000000	          0.00000000	          0.00000000	          0.00000000	         -4.57973744	          8.62118792	         -1.87158192	         -0.49061452	          0.00000000	         -0.08579388	          0.00000000	          0.00000000	          0.00000000	          0.00000000	          0.03328373	          0.00000000	
          2.21400000	          0.00000000	          0.00000000	          0.00000000	          0.00000000	          0.00000000	          0.00000000	         -7.44931371	         15.09169520	         -3.01638413	         -0.49244513	          0.00000000	         -0.08571113	          0.00000000	          0.00000000	          0.00000000	          0.00000000	          0.04935651	          0.00000000	
          2.21500000	          0.00000000	          0.00000000	          0.00000000	          0.00000000	          0.00000000	          0.00000000	        -10.57554910	         23.12416346	         -4.25024843	         -0.49351153	          0.00000000	         -0.08590459	          0.00000000	          0.00000000	          0.00000000	          0.00000000	          0.05896294	          0.00000000	
          2.21600000	          0.00000000	          0.00000000	          0.00000000	          0.00000000	          0.00000000	          0.00000000	        -13.55652110	         32.36303154	         -5.42824193	         -0.49377042	          0.00000000	         -0.08630218	          0.00000000	          0.00000000	          0.00000000	          0.00000000	          0.05814533	          0.00000000	
          2.21700000	          0.00000000	          0.00000000	          0.00000000	          0.00000000	          0.00000000	          0.00000000	        -16.19281801	         42.75410991	         -6.51485023	         -0.49318827	          0.00000000	         -0.08691731	          0.00000000	          0.00000000	          0.00000000	          0.00000000	          0.04480319	          0.00000000	
          2.21800000	          0.00000000	          0.00000000	          0.00000000	          0.00000000	          0.00000000	          0.00000000	        -18.44022199	         54.38034533	         -7.55715265	         -0.49189532	          0.00000000	         -0.08763969	          0.00000000	          0.00000000	          0.00000000	          0.00000000	          0.01823376	          0.00000000	
          2.21900000	          0.00000000	          0.00000000	          0.00000000	          0.00000000	          0.00000000	          0.00000000	        -20.27190060	         67.19751276	         -8.61147716	         -0.49018594	          0.00000000	         -0.08814074	          0.00000000	          0.00000000	          0.00000000	          0.00000000	         -0.01710694	          0.00000000	
